<svg width="56" height="42" viewBox="0 0 56 42" fill="none" xmlns="http://www.w3.org/2000/svg">
<path fill-rule="evenodd" clip-rule="evenodd" d="M0.499751 21.2543C0.499751 9.94928 9.67392 0.749999 20.953 0.749999C32.2299 0.75 41.4062 9.94709 41.4062 21.2543C41.4062 32.5594 32.2321 41.7587 20.953 41.7587C9.67611 41.7587 0.49975 32.5616 0.499751 21.2543ZM39.9469 21.2543C39.9469 10.7535 31.4255 2.2124 20.9525 2.2124C10.4778 2.2124 1.95796 10.7551 1.95796 21.2543C1.95796 31.7552 10.4794 40.2963 20.9525 40.2963C31.4255 40.2963 39.9469 31.7535 39.9469 21.2543Z" fill="#99B5FA"/>
<path fill-rule="evenodd" clip-rule="evenodd" d="M15.0946 21.2541C15.0946 18.0161 17.7234 15.3809 20.951 15.3809C24.1809 15.3809 26.8096 18.0163 26.8096 21.2541C26.8096 24.4919 24.1807 27.1251 20.951 27.1251C17.7211 27.1251 15.0946 24.4918 15.0946 21.2541ZM25.353 21.2541C25.353 18.8224 23.3787 16.8432 20.9531 16.8432C18.5275 16.8432 16.5532 18.8224 16.5532 21.2541C16.5532 23.6857 18.5275 25.665 20.9531 25.665C23.3787 25.665 25.353 23.6857 25.353 21.2541Z" fill="#99B5FA"/>
<path fill-rule="evenodd" clip-rule="evenodd" d="M5.35944 21.2542C5.35944 12.6363 12.3537 5.62402 20.9507 5.62402C29.5477 5.62402 36.542 12.6357 36.542 21.2542C36.542 29.8727 29.5477 36.8845 20.9507 36.8845C12.3537 36.8845 5.35944 29.8727 5.35944 21.2542ZM35.0849 21.2542C35.0849 13.4405 28.745 7.08478 20.9507 7.08477C13.1564 7.08477 6.81655 13.4405 6.81655 21.2542C6.81655 29.0658 13.1564 35.4237 20.9507 35.4237C28.745 35.4237 35.0849 29.068 35.0849 21.2542Z" fill="#99B5FA"/>
<path fill-rule="evenodd" clip-rule="evenodd" d="M10.223 21.2541C10.223 15.3228 15.0358 10.498 20.9523 10.498C26.8689 10.498 31.6816 15.3228 31.6816 21.2541C31.6816 27.1855 26.8689 32.0102 20.9523 32.0102C15.0358 32.0102 10.223 27.1855 10.223 21.2541ZM30.2223 21.2541C30.2223 16.1292 26.0641 11.9583 20.9496 11.9583C15.8374 11.9583 11.6791 16.1269 11.6791 21.2541C11.6791 26.3791 15.8394 30.55 20.9518 30.55C26.0642 30.55 30.2223 26.3814 30.2223 21.2541Z" fill="#99B5FA"/>
<path fill-rule="evenodd" clip-rule="evenodd" d="M20.2235 21.2546C20.2235 20.8515 20.5508 20.5234 20.9529 20.5234L51.4269 20.5234C51.829 20.5234 52.1562 20.8515 52.1562 21.2546C52.1562 21.6578 51.829 21.9858 51.4269 21.9858L20.9529 21.9858C20.5508 21.9858 20.2235 21.6599 20.2235 21.2546Z" fill="#99B5FA"/>
<path fill-rule="evenodd" clip-rule="evenodd" d="M44.0968 21.2259C44.0968 21.0458 44.1631 20.8635 44.2957 20.7242L47.3886 17.4433C47.5255 17.2975 47.718 17.2139 47.9191 17.2139L54.5202 17.2139C54.8111 17.2139 55.0742 17.3876 55.1897 17.6556C55.3052 17.9236 55.2496 18.2346 55.0507 18.4469L52.4261 21.2302L55.055 24.065C55.2517 24.2773 55.3052 24.5882 55.1897 24.8541C55.0742 25.12 54.8111 25.2937 54.5223 25.2937L47.9212 25.2937C47.718 25.2937 47.5255 25.2101 47.3886 25.06L44.2957 21.7234C44.1652 21.5819 44.0989 21.4039 44.0989 21.2259L44.0968 21.2259ZM48.2336 18.6763L45.8251 21.2302L48.2378 23.8334L52.8495 23.8334L50.8945 21.7234C50.6335 21.4403 50.6335 21.0029 50.8988 20.7241L52.8302 18.6763L48.2336 18.6763Z" fill="#99B5FA"/>
</svg>
