<svg width="49" height="55" viewBox="0 0 49 55" fill="none" xmlns="http://www.w3.org/2000/svg">
<path d="M44.8118 23.8436C44.0379 23.8028 43.272 24.0176 42.6321 24.4551C42.4031 23.7961 41.9852 23.2192 41.4306 22.7963C40.8759 22.3735 40.2092 22.1235 39.5134 22.0775C39.4517 22.0745 39.3915 22.0863 39.3299 22.0863V0.883065C39.3299 0.648861 39.2369 0.42425 39.0714 0.258644C38.9059 0.0930368 38.6814 0 38.4474 0H6.67748C5.03969 0.00189309 3.46952 0.653759 2.31143 1.8126C1.15334 2.97143 0.501892 4.54261 0.5 6.18145V44.1532C0.501542 45.558 1.0599 46.9047 2.05257 47.898C3.04523 48.8914 4.39114 49.4501 5.79498 49.4516H21.7203C22.7604 51.0731 24.1903 52.4077 25.8792 53.3333C27.568 54.259 29.4618 54.746 31.3874 54.75H36.6824C39.724 54.7465 42.64 53.5359 44.7908 51.3838C46.9415 49.2316 48.1513 46.3137 48.1548 43.2702V27.5251C48.1731 26.6003 47.8368 25.7036 47.2152 25.019C46.5935 24.3344 45.7336 23.9138 44.8118 23.8436ZM5.79498 47.6855C4.85877 47.6855 3.9609 47.3133 3.2989 46.6509C2.6369 45.9885 2.26499 45.09 2.26499 44.1532C2.26499 43.2164 2.6369 42.318 3.2989 41.6555C3.9609 40.9931 4.85877 40.621 5.79498 40.621H19.9149V43.2702C19.9178 43.7248 19.9474 44.1789 20.0036 44.6301C20.0193 44.7632 20.0421 44.8943 20.0624 45.0266C20.1131 45.3571 20.1778 45.6842 20.2565 46.0077C20.2883 46.1381 20.3179 46.2683 20.3542 46.3973C20.4696 46.8166 20.609 47.2289 20.7717 47.6322C20.7773 47.6462 20.7811 47.6608 20.7868 47.6747L20.7906 47.6853L5.79498 47.6855ZM19.9149 35.4727V38.8548H5.79498C5.48954 38.8562 5.18478 38.8839 4.88407 38.9375C4.85812 38.9419 4.83191 38.9441 4.80614 38.949C4.52375 39.0035 4.2463 39.081 3.9766 39.181C3.93997 39.1943 3.90291 39.2059 3.86655 39.2202C3.60575 39.3229 3.35355 39.4462 3.11237 39.5891C3.0731 39.6122 3.03418 39.6348 2.99544 39.659C2.75702 39.8077 2.53059 39.9748 2.31821 40.1589C2.30126 40.1735 2.28141 40.1835 2.26464 40.1984V6.18145C2.26602 5.01086 2.73135 3.8886 3.55855 3.06087C4.38575 2.23314 5.50729 1.76751 6.67713 1.76613H37.5649V22.5475C37.552 22.5544 37.5399 22.5621 37.5269 22.569C37.4243 21.7437 37.0388 20.9795 36.4362 20.4068C35.8335 19.834 35.0509 19.4882 34.2219 19.4283C33.5822 19.3944 32.9453 19.5355 32.3797 19.8364C31.8141 20.1374 31.3412 20.5869 31.0116 21.1366C30.327 20.5558 29.4455 20.2607 28.5495 20.3123C27.6284 20.3829 26.7692 20.8036 26.1482 21.488C25.5272 22.1724 25.1915 23.0686 25.2099 23.9929V32.2583C24.6179 31.9149 23.9382 31.7527 23.2549 31.7918C22.3337 31.8624 21.4744 32.2831 20.8533 32.9675C20.2322 33.652 19.8965 34.5484 19.9149 35.4727ZM46.3898 43.2702C46.3869 45.8455 45.3632 48.3145 43.5434 50.1356C41.7235 51.9566 39.2561 52.9809 36.6824 52.9839H31.3874C30.112 52.9859 28.8488 52.736 27.6701 52.2485C26.4915 51.7611 25.4205 51.0457 24.5187 50.1433C23.6169 49.2409 22.9019 48.1692 22.4148 46.9898C21.9277 45.8104 21.6779 44.5463 21.6799 43.2702V35.4727C21.6511 35.2127 21.6817 34.9496 21.7693 34.7031C21.857 34.4567 21.9994 34.2334 22.1859 34.05C22.3724 33.8667 22.5981 33.7282 22.8459 33.6449C23.0937 33.5616 23.3572 33.5358 23.6165 33.5693C23.6577 33.5732 23.6995 33.5741 23.74 33.5809C23.8136 33.5947 23.8862 33.6133 23.9574 33.6365C23.9967 33.6485 24.0373 33.6563 24.0756 33.671C24.1446 33.6994 24.2116 33.7323 24.2762 33.7694C24.3115 33.7884 24.3491 33.8028 24.3832 33.8244C24.4814 33.8864 24.5734 33.9579 24.6578 34.0377C24.8329 34.2026 24.9723 34.4017 25.0673 34.6228C25.1622 34.8438 25.2108 35.082 25.2099 35.3226V37.9718C25.2099 38.206 25.3029 38.4306 25.4684 38.5962C25.6339 38.7618 25.8584 38.8548 26.0924 38.8548C26.3265 38.8548 26.5509 38.7618 26.7164 38.5962C26.8819 38.4306 26.9749 38.206 26.9749 37.9718V23.9929C26.9622 23.5221 27.1268 23.0637 27.436 22.7086C27.7452 22.3536 28.1764 22.1277 28.6442 22.0758C28.884 22.063 29.1238 22.0993 29.349 22.1823C29.5743 22.2654 29.7802 22.3935 29.9544 22.5588C30.1285 22.7242 30.2671 22.9233 30.3618 23.1441C30.4564 23.3648 30.5051 23.6025 30.5049 23.8427V33.5565C30.5049 33.7907 30.5979 34.0153 30.7634 34.1809C30.9289 34.3465 31.1533 34.4395 31.3874 34.4395C31.6214 34.4395 31.8459 34.3465 32.0114 34.1809C32.1769 34.0153 32.2699 33.7907 32.2699 33.5565V22.9597C32.2689 22.7191 32.3174 22.4809 32.4122 22.2599C32.5071 22.0388 32.6464 21.8396 32.8215 21.6747C32.9966 21.5121 33.2022 21.3857 33.4263 21.3028C33.6505 21.2199 33.8888 21.1822 34.1275 21.1918C34.5959 21.2433 35.0278 21.4691 35.3376 21.8244C35.6473 22.1797 35.8123 22.6385 35.7999 23.1098V32.6734C35.7999 32.9076 35.8929 33.1322 36.0584 33.2978C36.2239 33.4634 36.4483 33.5565 36.6824 33.5565C36.9164 33.5565 37.1409 33.4634 37.3064 33.2978C37.4719 33.1322 37.5649 32.9076 37.5649 32.6734V25.6089C37.5646 25.2424 37.6782 24.885 37.8899 24.586C38.1016 24.287 38.4009 24.0612 38.7464 23.9399C38.9635 23.8649 39.1927 23.8313 39.4221 23.8406C39.8906 23.8921 40.3226 24.1179 40.6325 24.4733C40.9424 24.8286 41.1074 25.2875 41.0949 25.759V34.4395C41.0949 34.6737 41.1878 34.8983 41.3533 35.0639C41.5188 35.2295 41.7433 35.3226 41.9774 35.3226C42.2114 35.3226 42.4359 35.2295 42.6014 35.0639C42.7669 34.8983 42.8599 34.6737 42.8599 34.4395V27.375C42.8589 27.1344 42.9073 26.8962 43.0022 26.6752C43.0971 26.4541 43.2364 26.255 43.4114 26.0901C43.5864 25.9272 43.792 25.8007 44.0162 25.7178C44.2403 25.6349 44.4787 25.5973 44.7175 25.6071C45.1859 25.6587 45.6178 25.8845 45.9275 26.2397C46.2373 26.595 46.4023 27.0538 46.3898 27.5251V43.2702Z" fill="#99B5FA"/>
</svg>
