<svg width="61" height="56" viewBox="0 0 61 56" fill="none" xmlns="http://www.w3.org/2000/svg">
<path fill-rule="evenodd" clip-rule="evenodd" d="M44.5142 5.43139L16.8258 12.8476C15.6582 13.1604 14.8243 14.0986 14.5741 15.2078L2.31445 18.4958C0.646479 18.942 -0.333579 20.6579 0.104265 22.3259C0.604657 24.1836 1.33456 26.9253 1.83495 28.783C2.2728 30.451 4.00325 31.4414 5.67122 30.9952L17.9309 27.7072C18.7023 28.5454 19.8907 28.9415 21.0583 28.6267L28.4392 26.6501L13.5107 53.957C13.2397 54.4615 13.4272 55.0954 13.9276 55.3727C14.4489 55.6479 15.0745 55.4623 15.3455 54.9577L29.3356 29.3502V54.2635C29.3356 54.8389 29.8151 55.3059 30.3781 55.3059C30.9618 55.3059 31.4205 54.8389 31.4205 54.2635V29.3502L45.4109 54.9577C45.6819 55.4623 46.3281 55.6479 46.8285 55.3727C47.3289 55.0954 47.5167 54.4615 47.2456 53.957L31.8377 25.7411L48.7468 21.2104C49.4556 22.3384 50.8318 22.9243 52.187 22.5615L58.4419 20.8852C60.1099 20.439 61.1105 18.7231 60.6518 17.0551L56.9197 3.06912C56.461 1.40115 54.7514 0.410787 53.0834 0.85697L46.8285 2.53329C45.4733 2.89607 44.5559 4.0991 44.5142 5.43139ZM5.60861 19.7718L2.85657 20.5099C2.29362 20.6579 1.98093 21.2292 2.12688 21.7859C2.60642 23.6436 3.35692 26.3853 3.85731 28.243C4.00326 28.7997 4.56617 29.1292 5.12911 28.9811L7.88141 28.2451L5.60861 19.7718ZM7.61036 19.2339L9.8829 27.7051L17.0551 25.7828L14.7825 17.3115L7.61036 19.2339ZM44.9102 7.48092L17.3679 14.8617C16.8258 15.0097 16.4922 15.581 16.6382 16.1377L19.2444 25.8766C19.3903 26.4312 19.9741 26.7627 20.5162 26.6126L48.0586 19.2318L44.9102 7.48092ZM54.8973 3.60913L58.6504 17.5951C58.7963 18.1518 58.4627 18.7231 57.8998 18.8711L51.6449 20.5474C51.1028 20.6975 50.519 20.366 50.3731 19.8114L46.6409 5.82337C46.4741 5.26876 46.8077 4.69748 47.3706 4.54737L53.6255 2.87105C54.1676 2.72302 54.7514 3.05244 54.8973 3.60913Z" fill="#99B5FA"/>
</svg>
